<svg xmlns="http://www.w3.org/2000/svg" viewBox="0 0 64 64" fill="none">
  <defs>
    <linearGradient id="g" x1="8" y1="8" x2="56" y2="56" gradientUnits="userSpaceOnUse">
      <stop stop-color="#60A5FA"/>
      <stop offset="1" stop-color="#1D4ED8"/>
    </linearGradient>
  </defs>
  <rect x="6" y="6" width="52" height="52" rx="14" fill="url(#g)"/>
  <g transform="translate(16 16) scale(2)" fill="#fff">
    <path d="M1.475 9C2.702 10.84 4.779 12.871 8 15c3.221-2.129 5.298-4.16 6.525-6H12a.5.5 0 0 1-.464-.314l-1.457-3.642-1.598 5.593a.5.5 0 0 1-.945.049L5.889 6.568l-1.473 2.21A.5.5 0 0 1 4 9z"/>
    <path d="M.88 8C-2.427 1.68 4.41-2 7.823 1.143q.09.083.176.171a3 3 0 0 1 .176-.17C11.59-2 18.426 1.68 15.12 8h-2.783l-1.874-4.686a.5.5 0 0 0-.945.049L7.921 8.956 6.464 5.314a.5.5 0 0 0-.88-.091L3.732 8z"/>
  </g>
</svg>